<?xml version="1.0" encoding="UTF-8" standalone="no"?><!DOCTYPE svg PUBLIC "-//W3C//DTD SVG 1.1//EN" "http://www.w3.org/Graphics/SVG/1.1/DTD/svg11.dtd"><svg width="100%" height="100%" viewBox="0 0 500 500" version="1.1" xmlns="http://www.w3.org/2000/svg" xmlns:xlink="http://www.w3.org/1999/xlink" xml:space="preserve" xmlns:serif="http://www.serif.com/" style="fill-rule:evenodd;clip-rule:evenodd;stroke-linejoin:round;stroke-miterlimit:2;"><g transform="matrix(1,0,0,1,2.80081,29.5197)"><path d="M447.398,131.746C447.398,72.148 399.013,23.763 339.416,23.763L123.451,23.763C63.854,23.763 15.468,72.148 15.468,131.746L15.468,347.711C15.468,407.308 63.854,455.693 123.451,455.693L339.416,455.693C399.013,455.693 447.398,407.308 447.398,347.711L447.398,131.746Z" style="fill:rgb(33,0,63);"/></g><g transform="matrix(1,0,0,1,18.5667,10.272)"><path d="M447.398,131.746C447.398,72.148 399.013,23.763 339.416,23.763L123.451,23.763C63.854,23.763 15.468,72.148 15.468,131.746L15.468,347.711C15.468,407.308 63.854,455.693 123.451,455.693L339.416,455.693C399.013,455.693 447.398,407.308 447.398,347.711L447.398,131.746Z" style="fill:rgb(106,0,93);"/></g><g transform="matrix(1,0,0,1,-5.15143e-14,-9.80006)"><g transform="matrix(175,0,0,175,456.413,287.769)"></g><text x="43.587px" y="287.769px" style="font-family:'AvenirNext-Regular', 'Avenir Next', sans-serif;font-size:175px;fill:white;">DPL<tspan x="351.063px " y="287.769px ">Y</tspan></text></g><g transform="matrix(1.22744,0,0,0.709636,55.7462,212.636)"><path d="M156.032,173.185C152.173,173.442 148.907,175.784 146.235,180.213C143.564,184.642 142.228,190.515 142.228,197.832C142.228,204.765 143.489,210.188 146.013,214.104C148.536,218.019 151.876,220.94 156.032,222.865L156.032,173.185ZM161.376,292.187C163.009,292.058 164.697,291.513 166.441,290.55C168.185,289.587 169.762,288.079 171.173,286.025C172.583,283.971 173.733,281.307 174.624,278.034C175.514,274.76 175.96,270.748 175.96,265.999C175.96,259.452 174.587,253.932 171.841,249.438C169.095,244.945 165.606,241.544 161.376,239.233L161.376,292.187ZM156.032,236.922C153.509,235.638 150.967,234.034 148.406,232.108C145.846,230.183 143.545,227.743 141.504,224.791C139.463,221.838 137.793,218.276 136.494,214.104C135.196,209.932 134.546,204.893 134.546,198.988C134.546,193.468 135.121,188.493 136.272,184.064C137.422,179.636 138.981,175.849 140.947,172.703C142.914,169.558 145.196,167.119 147.794,165.386C150.392,163.653 153.138,162.658 156.032,162.402L156.032,148.537L161.376,148.537L161.376,162.402C163.157,162.53 164.994,162.915 166.887,163.557C168.779,164.199 170.635,165.162 172.453,166.445C174.271,167.729 175.997,169.334 177.63,171.259C179.262,173.185 180.71,175.431 181.971,177.999L175.848,186.086C174.141,181.85 171.97,178.673 169.336,176.555C166.701,174.436 164.048,173.313 161.376,173.185L161.376,226.139C164.196,227.808 166.961,229.701 169.67,231.819C172.379,233.937 174.791,236.569 176.906,239.714C179.021,242.859 180.728,246.614 182.027,250.979C183.326,255.344 183.975,260.671 183.975,266.961C183.975,272.353 183.4,277.263 182.25,281.692C181.099,286.121 179.504,289.908 177.463,293.053C175.422,296.198 173.028,298.67 170.282,300.467C167.536,302.264 164.567,303.227 161.376,303.355L161.376,317.219L156.032,317.219L156.032,303.355C150.985,303.098 146.477,301.109 142.506,297.386C138.535,293.663 135.214,288.849 132.542,282.944L138.888,275.241C139.853,278.194 141.077,280.697 142.562,282.751C144.046,284.805 145.586,286.538 147.182,287.95C148.777,289.363 150.355,290.422 151.913,291.128C153.472,291.834 154.845,292.187 156.032,292.187L156.032,236.922Z" style="fill:white;fill-rule:nonzero;"/></g></svg>